<?xml version="1.0" encoding="UTF-8" standalone="no"?>
<!DOCTYPE svg PUBLIC "-//W3C//DTD SVG 1.1//EN" "http://www.w3.org/Graphics/SVG/1.1/DTD/svg11.dtd">
<!-- Generated by Microsoft Visio, SVG Export DFD_3_Figure1.svg Page-1 -->
<svg xmlns="http://www.w3.org/2000/svg" xmlns:xlink="http://www.w3.org/1999/xlink" xmlns:ev="http://www.w3.org/2001/xml-events"
		xmlns:v="http://schemas.microsoft.com/visio/2003/SVGExtensions/" width="8.5in" height="11in" viewBox="0 0 612 792"
		xml:space="preserve" color-interpolation-filters="sRGB" class="st11">
	<v:documentProperties v:langID="1033" v:viewMarkup="false">
		<v:userDefs>
			<v:ud v:nameU="msvNoAutoConnect" v:val="VT0(1):26"/>
		</v:userDefs>
	</v:documentProperties>

	<style type="text/css">
	<![CDATA[
		.st1 {marker-end:url(#mrkr13-6);stroke:#000000;stroke-linecap:round;stroke-linejoin:round;stroke-width:0.75}
		.st2 {fill:#000000;fill-opacity:1;stroke:#000000;stroke-opacity:1;stroke-width:0.22935779816514}
		.st3 {fill:#ffffff;stroke:none;stroke-linecap:butt}
		.st4 {fill:#000000;font-family:Calibri;font-size:0.666664em}
		.st5 {fill:#ffffff;stroke:none;stroke-linecap:butt;stroke-width:7.2}
		.st6 {font-size:1em}
		.st7 {fill:#ffffff;stroke:#000000;stroke-linecap:round;stroke-linejoin:round;stroke-width:0.24}
		.st8 {stroke:#000000;stroke-linecap:round;stroke-linejoin:round;stroke-width:0.24}
		.st9 {fill:none;stroke:none;stroke-linecap:round;stroke-linejoin:round;stroke-width:0.75}
		.st10 {fill:#000000;font-family:Calibri;font-size:1.00001em}
		.st11 {fill:none;fill-rule:evenodd;font-size:12px;overflow:visible;stroke-linecap:square;stroke-miterlimit:3}
	]]>
	</style>

	<defs id="Markers">
		<g id="lend13">
			<path d="M 3 1 L 0 0 L 3 -1 L 3 1 " style="stroke:none"/>
		</g>
		<marker id="mrkr13-6" class="st2" v:arrowType="13" v:arrowSize="2" v:setback="13.08" refX="-13.08" orient="auto"
				markerUnits="strokeWidth" overflow="visible">
			<use xlink:href="#lend13" transform="scale(-4.36,-4.36) "/>
		</marker>
	</defs>
	<g v:mID="0" v:index="1" v:groupContext="foregroundPage">
		<title>Page-1</title>
		<v:pageProperties v:drawingScale="1" v:pageScale="1" v:drawingUnits="19" v:shadowOffsetX="9" v:shadowOffsetY="-9"/>
		<v:layer v:name="Flowchart" v:index="0"/>
		<v:layer v:name="Connector" v:index="1"/>
		<g id="shape32-1" v:mID="32" v:groupContext="shape" v:layerMember="1" transform="translate(18,-639)">
			<title>Dynamic connector.32</title>
			<desc>Film Information</desc>
			<v:textBlock v:margins="rect(4,4,4,4)"/>
			<v:textRect cx="46.1604" cy="783" width="64.19" height="17.6036"/>
			<path d="M0 783 L82.51 783" class="st1"/>
			<rect v:rectContext="textBkgnd" x="18.9734" y="778.2" width="54.3744" height="9.59985" class="st3"/>
			<text x="18.97" y="785.4" class="st4" v:langID="1033"><v:paragraph v:horizAlign="1"/><v:tabList/>Film Information</text>		</g>
		<g id="shape33-9" v:mID="33" v:groupContext="shape" v:layerMember="1" transform="translate(110.321,-549)">
			<title>Dynamic connector.33</title>
			<desc>Approval/Denial of Film Showing</desc>
			<v:textBlock v:margins="rect(4,4,4,4)"/>
			<v:textRect cx="-41.1893" cy="783" width="62.84" height="27.2035"/>
			<path d="M0 783 L-82.51 783" class="st1"/>
			<rect v:rectContext="textBkgnd" x="-67.7007" y="773.4" width="53.023" height="19.1997" class="st5"/>
			<text x="-67.7" y="780.6" class="st4" v:langID="1033"><v:paragraph v:horizAlign="1"/><v:tabList/>Approval/Denial<v:newlineChar/><tspan
						x="-67.01" dy="1.2em" class="st6">of Film Showing</tspan></text>		</g>
		<g id="shape34-17" v:mID="34" v:groupContext="shape" v:layerMember="1" transform="translate(401.696,-360)">
			<title>Dynamic connector.34</title>
			<desc>Queue of Films to Reivew</desc>
			<v:textBlock v:margins="rect(4,4,4,4)"/>
			<v:textRect cx="9" cy="801.536" width="92.7" height="17.6036"/>
			<path d="M9 792 L9 815.56" class="st1"/>
			<rect v:rectContext="textBkgnd" x="-32.4407" y="796.736" width="82.8817" height="9.59985" class="st5"/>
			<text x="-32.44" y="803.94" class="st4" v:langID="1033"><v:paragraph v:horizAlign="1"/><v:tabList/>Queue of Films to Reivew</text>		</g>
		<g id="shape35-24" v:mID="35" v:groupContext="shape" v:layerMember="1" transform="translate(289.196,-326.25)">
			<title>Dynamic connector.35</title>
			<desc>Film Review</desc>
			<v:textBlock v:margins="rect(4,4,4,4)"/>
			<v:textRect cx="9" cy="730.125" width="48.84" height="17.6036"/>
			<path d="M9 792 L9 678.06" class="st1"/>
			<rect v:rectContext="textBkgnd" x="-10.5093" y="725.325" width="39.0188" height="9.59985" class="st3"/>
			<text x="-10.51" y="732.53" class="st4" v:langID="1033"><v:paragraph v:horizAlign="1"/><v:tabList/>Film Review</text>		</g>
		<g id="shape40-31" v:mID="40" v:groupContext="shape" v:layerMember="1" transform="translate(456.193,-711.797)">
			<title>Dynamic connector.40</title>
			<desc>Film Data + Screening Times</desc>
			<v:textBlock v:margins="rect(4,4,4,4)"/>
			<v:textRect cx="32.9037" cy="760.898" width="101.09" height="17.6036"/>
			<path d="M0 792 L58.68 736.54" class="st1"/>
			<rect v:rectContext="textBkgnd" x="-12.7323" y="756.099" width="91.2722" height="9.59985" class="st5"/>
			<text x="-12.73" y="763.3" class="st4" v:langID="1033"><v:paragraph v:horizAlign="1"/><v:tabList/>Film Data + Screening Times</text>		</g>
		<g id="shape41-38" v:mID="41" v:groupContext="shape" v:layerMember="0" transform="translate(110.321,-621)">
			<title>Data process.41</title>
			<desc>1.1 Store Film</desc>
			<v:custProps>
				<v:cp v:nameU="Cost" v:lbl="Cost" v:type="7" v:format="@" v:langID="1033"/>
				<v:cp v:nameU="Duration" v:lbl="Duration" v:type="2" v:langID="1033"/>
				<v:cp v:nameU="Resources" v:lbl="Resources" v:langID="1033"/>
			</v:custProps>
			<v:userDefs>
				<v:ud v:nameU="visVersion" v:val="VT0(15):26"/>
			</v:userDefs>
			<v:textBlock v:margins="rect(1,1,1,1)"/>
			<v:textRect cx="27" cy="765" width="54" height="54"/>
			<path d="M0 765 A27 27 0 0 1 54 765 A27 27 0 1 1 0 765 Z" class="st7"/>
			<text x="21.94" y="762.6" class="st4" v:langID="1033"><v:paragraph v:horizAlign="1"/><v:tabList/>1.1<v:newlineChar/><tspan
						x="10.55" dy="1.2em" class="st6">Store Film</tspan></text>		</g>
		<g id="shape42-42" v:mID="42" v:groupContext="shape" v:layerMember="0" transform="translate(271.196,-544.5)">
			<title>Data store</title>
			<desc>Film Database</desc>
			<v:custProps>
				<v:cp v:nameU="Cost" v:lbl="Cost" v:type="7" v:format="@" v:langID="1033"/>
				<v:cp v:nameU="Duration" v:lbl="Duration" v:type="2" v:langID="1033"/>
				<v:cp v:nameU="Resources" v:lbl="Resources" v:langID="1033"/>
			</v:custProps>
			<v:userDefs>
				<v:ud v:nameU="visVersion" v:val="VT0(15):26"/>
			</v:userDefs>
			<v:textBlock v:margins="rect(1,1,1,1)"/>
			<v:textRect cx="27" cy="778.5" width="54" height="27"/>
			<path d="M0 792 L54 792" class="st8"/>
			<path d="M0 765 L54 765" class="st8"/>
			<rect v:rectContext="textBkgnd" x="4.02182" y="773.7" width="45.9564" height="9.59985" class="st5"/>
			<text x="4.02" y="780.9" class="st4" v:langID="1033"><v:paragraph v:horizAlign="1"/><v:tabList/>Film Database</text>		</g>
		<g id="shape43-48" v:mID="43" v:groupContext="shape" v:layerMember="1" transform="translate(160.884,-634.818)">
			<title>Dynamic connector.43</title>
			<desc>Film Metadata</desc>
			<v:textBlock v:margins="rect(4,4,4,4)"/>
			<v:textRect cx="31.5221" cy="810.888" width="57.24" height="17.6036"/>
			<path d="M0 792 L104.62 850.53" class="st1"/>
			<rect v:rectContext="textBkgnd" x="7.80977" y="806.088" width="47.425" height="9.59985" class="st3"/>
			<text x="7.81" y="813.29" class="st4" v:langID="1033"><v:paragraph v:horizAlign="1"/><v:tabList/>Film Metadata</text>		</g>
		<g id="shape44-55" v:mID="44" v:groupContext="shape" v:layerMember="0" transform="translate(379.196,-544.5)">
			<title>Data store.44</title>
			<desc>Media Storage</desc>
			<v:custProps>
				<v:cp v:nameU="Cost" v:lbl="Cost" v:type="7" v:format="@" v:langID="1033"/>
				<v:cp v:nameU="Duration" v:lbl="Duration" v:type="2" v:langID="1033"/>
				<v:cp v:nameU="Resources" v:lbl="Resources" v:langID="1033"/>
			</v:custProps>
			<v:userDefs>
				<v:ud v:nameU="visVersion" v:val="VT0(15):26"/>
			</v:userDefs>
			<v:textBlock v:margins="rect(1,1,1,1)"/>
			<v:textRect cx="27" cy="778.5" width="54" height="27"/>
			<path d="M0 792 L54 792" class="st8"/>
			<path d="M0 765 L54 765" class="st8"/>
			<rect v:rectContext="textBkgnd" x="3.27942" y="773.7" width="47.4409" height="9.59985" class="st5"/>
			<text x="3.28" y="780.9" class="st4" v:langID="1033"><v:paragraph v:horizAlign="1"/><v:tabList/>Media Storage</text>		</g>
		<g id="shape45-61" v:mID="45" v:groupContext="shape" v:layerMember="1" transform="translate(164.321,-648)">
			<title>Dynamic connector.45</title>
			<desc>Film File</desc>
			<v:textBlock v:margins="rect(4,4,4,4)"/>
			<v:textRect cx="46.8924" cy="792" width="40" height="17.6036"/>
			<path d="M0 792 L130.88 792 A3 3 0 0 1 136.88 792 L222.84 792 A3 3 0 0 1 228.84 792 L241.87 792 L241.87 858.69"
					class="st1"/>
			<rect v:rectContext="textBkgnd" x="33.4554" y="787.2" width="26.8742" height="9.59985" class="st5"/>
			<text x="33.46" y="794.4" class="st4" v:langID="1033"><v:paragraph v:horizAlign="1"/><v:tabList/>Film File</text>		</g>
		<g id="shape47-68" v:mID="47" v:groupContext="shape" v:layerMember="0" transform="translate(352.196,-450)">
			<title>Data process.47</title>
			<desc>1.3 Retrieve Metadata</desc>
			<v:custProps>
				<v:cp v:nameU="Cost" v:lbl="Cost" v:type="7" v:format="@" v:langID="1033"/>
				<v:cp v:nameU="Duration" v:lbl="Duration" v:type="2" v:langID="1033"/>
				<v:cp v:nameU="Resources" v:lbl="Resources" v:langID="1033"/>
			</v:custProps>
			<v:userDefs>
				<v:ud v:nameU="visVersion" v:val="VT0(15):26"/>
			</v:userDefs>
			<v:textBlock v:margins="rect(1,1,1,1)"/>
			<v:textRect cx="27" cy="765" width="54" height="54"/>
			<path d="M0 765 A27 27 0 0 1 54 765 A27 27 0 1 1 0 765 Z" class="st7"/>
			<text x="21.94" y="757.8" class="st4" v:langID="1033"><v:paragraph v:horizAlign="1"/><v:tabList/>1.3<v:newlineChar/><tspan
						x="13.4" dy="1.2em" class="st6">Retrieve </tspan><tspan x="11.06" dy="1.2em" class="st6">Metadata</tspan></text>		</g>
		<g id="shape48-73" v:mID="48" v:groupContext="shape" v:layerMember="1" transform="translate(311.696,-544.5)">
			<title>Dynamic connector.48</title>
			<desc>Film Data</desc>
			<v:textBlock v:margins="rect(4,4,4,4)"/>
			<v:textRect cx="33.75" cy="812.25" width="40.63" height="17.6036"/>
			<path d="M0 792 L59.09 827.45" class="st1"/>
			<rect v:rectContext="textBkgnd" x="18.3441" y="807.45" width="30.812" height="9.59985" class="st5"/>
			<text x="18.34" y="814.65" class="st4" v:langID="1033"><v:paragraph v:horizAlign="1"/><v:tabList/>Film Data</text>		</g>
		<g id="shape49-80" v:mID="49" v:groupContext="shape" v:layerMember="1" transform="translate(406.196,-544.5)">
			<title>Dynamic connector.49</title>
			<desc>Film File</desc>
			<v:textBlock v:margins="rect(4,4,4,4)"/>
			<v:textRect cx="18" cy="812.25" width="40" height="17.6036"/>
			<path d="M0 792 L29.48 825.17" class="st1"/>
			<rect v:rectContext="textBkgnd" x="4.56296" y="807.45" width="26.8742" height="9.59985" class="st5"/>
			<text x="4.56" y="814.65" class="st4" v:langID="1033"><v:paragraph v:horizAlign="1"/><v:tabList/>Film File</text>		</g>
		<g id="shape50-87" v:mID="50" v:groupContext="shape" v:layerMember="0" transform="translate(271.196,-450)">
			<title>Data process.50</title>
			<desc>1.6 Store Review</desc>
			<v:custProps>
				<v:cp v:nameU="Cost" v:lbl="Cost" v:type="7" v:format="@" v:langID="1033"/>
				<v:cp v:nameU="Duration" v:lbl="Duration" v:type="2" v:langID="1033"/>
				<v:cp v:nameU="Resources" v:lbl="Resources" v:langID="1033"/>
			</v:custProps>
			<v:userDefs>
				<v:ud v:nameU="visVersion" v:val="VT0(15):26"/>
			</v:userDefs>
			<v:textBlock v:margins="rect(1,1,1,1)"/>
			<v:textRect cx="27" cy="765" width="54" height="54"/>
			<path d="M0 765 A27 27 0 0 1 54 765 A27 27 0 1 1 0 765 Z" class="st7"/>
			<text x="21.94" y="762.6" class="st4" v:langID="1033"><v:paragraph v:horizAlign="1"/><v:tabList/>1.6<v:newlineChar/><tspan
						x="5.69" dy="1.2em" class="st6">Store Review</tspan></text>		</g>
		<g id="shape51-91" v:mID="51" v:groupContext="shape" v:layerMember="0" transform="translate(383.696,-360)">
			<title>Data process.51</title>
			<desc>1.5 Display Film Review Queue Web Page</desc>
			<v:custProps>
				<v:cp v:nameU="Cost" v:lbl="Cost" v:type="7" v:format="@" v:langID="1033"/>
				<v:cp v:nameU="Duration" v:lbl="Duration" v:type="2" v:langID="1033"/>
				<v:cp v:nameU="Resources" v:lbl="Resources" v:langID="1033"/>
			</v:custProps>
			<v:userDefs>
				<v:ud v:nameU="visVersion" v:val="VT0(15):26"/>
			</v:userDefs>
			<v:textBlock v:margins="rect(1,1,1,1)"/>
			<v:textRect cx="27" cy="765" width="54" height="54"/>
			<path d="M0 765 A27 27 0 0 1 54 765 A27 27 0 1 1 0 765 Z" class="st7"/>
			<text x="21.94" y="753" class="st4" v:langID="1033"><v:paragraph v:horizAlign="1"/><v:tabList/>1.5<v:newlineChar/><tspan
						x="7.54" dy="1.2em" class="st6">Display Film </tspan><tspan x="3.48" dy="1.2em" class="st6">Review Queue </tspan><tspan
						x="10.59" dy="1.2em" class="st6">Web Page</tspan></text>		</g>
		<g id="shape52-97" v:mID="52" v:groupContext="shape" v:layerMember="1" transform="translate(379.196,-450)">
			<title>Dynamic connector.52</title>
			<desc>Film Data</desc>
			<v:textBlock v:margins="rect(4,4,4,4)"/>
			<v:textRect cx="4.5" cy="801" width="40.63" height="17.6036"/>
			<path d="M0 792 L20.83 820.52" class="st1"/>
			<rect v:rectContext="textBkgnd" x="-10.9059" y="796.2" width="30.812" height="9.59985" class="st5"/>
			<text x="-10.91" y="803.4" class="st4" v:langID="1033"><v:paragraph v:horizAlign="1"/><v:tabList/>Film Data</text>		</g>
		<g id="shape53-104" v:mID="53" v:groupContext="shape" v:layerMember="1" transform="translate(289.196,-504)">
			<title>Dynamic connector.53</title>
			<desc>Film Review</desc>
			<v:textBlock v:margins="rect(4,4,4,4)"/>
			<v:textRect cx="9" cy="778.5" width="40" height="27.2035"/>
			<path d="M9 792 L9 761.31" class="st1"/>
			<rect v:rectContext="textBkgnd" x="-2.73608" y="768.9" width="23.4723" height="19.1997" class="st5"/>
			<text x="2.13" y="776.1" class="st4" v:langID="1033"><v:paragraph v:horizAlign="1"/><v:tabList/>Film<v:newlineChar/><tspan
						x="-2.74" dy="1.2em" class="st6">Review</tspan></text>		</g>
		<g id="shape54-112" v:mID="54" v:groupContext="shape" v:layerMember="0" transform="translate(110.321,-531)">
			<title>Data process.54</title>
			<desc>1.9 Send Approval Notifications</desc>
			<v:custProps>
				<v:cp v:nameU="Cost" v:lbl="Cost" v:type="7" v:format="@" v:langID="1033"/>
				<v:cp v:nameU="Duration" v:lbl="Duration" v:type="2" v:langID="1033"/>
				<v:cp v:nameU="Resources" v:lbl="Resources" v:langID="1033"/>
			</v:custProps>
			<v:userDefs>
				<v:ud v:nameU="visVersion" v:val="VT0(15):26"/>
			</v:userDefs>
			<v:textBlock v:margins="rect(1,1,1,1)"/>
			<v:textRect cx="27" cy="765" width="54" height="54"/>
			<path d="M0 765 A27 27 0 0 1 54 765 A27 27 0 1 1 0 765 Z" class="st7"/>
			<text x="21.94" y="757.8" class="st4" v:langID="1033"><v:paragraph v:horizAlign="1"/><v:tabList/>1.9<v:newlineChar/><tspan
						x="3.4" dy="1.2em" class="st6">Send Approval </tspan><tspan x="6.27" dy="1.2em" class="st6">Notifications</tspan></text>		</g>
		<g id="shape55-117" v:mID="55" v:groupContext="shape" v:layerMember="1" transform="translate(271.196,-549)">
			<title>Dynamic connector.55</title>
			<desc>Schedule</desc>
			<v:textBlock v:margins="rect(4,4,4,4)"/>
			<v:textRect cx="-53.4375" cy="783" width="40" height="17.6036"/>
			<path d="M0 783 L-97.07 783" class="st1"/>
			<rect v:rectContext="textBkgnd" x="-68.1696" y="778.2" width="29.4642" height="9.59985" class="st3"/>
			<text x="-68.17" y="785.4" class="st4" v:langID="1033"><v:paragraph v:horizAlign="1"/><v:tabList/>Schedule</text>		</g>
		<g id="shape57-124" v:mID="57" v:groupContext="shape" transform="translate(18,-754)">
			<title>Sheet.57</title>
			<desc>Figure 1</desc>
			<v:textBlock v:margins="rect(4,4,4,4)"/>
			<v:textRect cx="76" cy="782" width="152.01" height="20"/>
			<rect x="0" y="772" width="152" height="20" class="st9"/>
			<text x="56.42" y="785.6" class="st10" v:langID="1033"><v:paragraph v:horizAlign="1"/><v:tabList/>Figure 1</text>		</g>
		<g id="shape58-127" v:mID="58" v:groupContext="shape" v:layerMember="0" transform="translate(409.571,-666.25)">
			<title>Data process.58</title>
			<desc>1.10 Retrieve Film Schedule</desc>
			<v:custProps>
				<v:cp v:nameU="Cost" v:lbl="Cost" v:type="7" v:format="@" v:langID="1033"/>
				<v:cp v:nameU="Duration" v:lbl="Duration" v:type="2" v:langID="1033"/>
				<v:cp v:nameU="Resources" v:lbl="Resources" v:langID="1033"/>
			</v:custProps>
			<v:userDefs>
				<v:ud v:nameU="visVersion" v:val="VT0(15):26"/>
			</v:userDefs>
			<v:textBlock v:margins="rect(1,1,1,1)"/>
			<v:textRect cx="27" cy="765" width="54" height="54"/>
			<path d="M0 765 A27 27 0 0 1 54 765 A27 27 0 1 1 0 765 Z" class="st7"/>
			<text x="19.91" y="757.8" class="st4" v:langID="1033"><v:paragraph v:horizAlign="1"/><v:tabList/>1.10<v:newlineChar/><tspan
						x="5.63" dy="1.2em" class="st6">Retrieve Film </tspan><tspan x="12.27" dy="1.2em" class="st6">Schedule</tspan></text>		</g>
		<g id="shape97-132" v:mID="97" v:groupContext="shape" v:layerMember="1" transform="translate(289.196,-774)">
			<title>Dynamic connector.97</title>
			<desc>Filmmaker Category</desc>
			<v:textBlock v:margins="rect(4,4,4,4)"/>
			<v:textRect cx="9" cy="818.875" width="75.14" height="17.6036"/>
			<path d="M9 792 L9 835.94" class="st1"/>
			<rect v:rectContext="textBkgnd" x="-23.6636" y="814.075" width="65.3275" height="9.59985" class="st5"/>
			<text x="-23.66" y="821.28" class="st4" v:langID="1033"><v:paragraph v:horizAlign="1"/><v:tabList/>Filmmaker Category</text>		</g>
		<g id="shape98-139" v:mID="98" v:groupContext="shape" v:layerMember="0" transform="translate(271.196,-666.25)">
			<title>Data process.98</title>
			<desc>1.2 Categorize Film with User Data</desc>
			<v:custProps>
				<v:cp v:nameU="Cost" v:lbl="Cost" v:type="7" v:format="@" v:langID="1033"/>
				<v:cp v:nameU="Duration" v:lbl="Duration" v:type="2" v:langID="1033"/>
				<v:cp v:nameU="Resources" v:lbl="Resources" v:langID="1033"/>
			</v:custProps>
			<v:userDefs>
				<v:ud v:nameU="visVersion" v:val="VT0(15):26"/>
			</v:userDefs>
			<v:textBlock v:margins="rect(1,1,1,1)"/>
			<v:textRect cx="27" cy="765" width="54" height="54"/>
			<path d="M0 765 A27 27 0 0 1 54 765 A27 27 0 1 1 0 765 Z" class="st7"/>
			<text x="21.94" y="757.8" class="st4" v:langID="1033"><v:paragraph v:horizAlign="1"/><v:tabList/>1.2<v:newlineChar/><tspan
						x="1.97" dy="1.2em" class="st6">Categorize Film </tspan><tspan x="2.82" dy="1.2em" class="st6">with User Data</tspan></text>		</g>
		<g id="shape99-144" v:mID="99" v:groupContext="shape" v:layerMember="1" transform="translate(289.196,-666.25)">
			<title>Dynamic connector.99</title>
			<desc>Film Category</desc>
			<v:textBlock v:margins="rect(4,4,4,4)"/>
			<v:textRect cx="9" cy="839.375" width="54.52" height="17.6036"/>
			<path d="M9 792 L9 876.94" class="st1"/>
			<rect v:rectContext="textBkgnd" x="-13.3492" y="834.575" width="44.6987" height="9.59985" class="st5"/>
			<text x="-13.35" y="841.78" class="st4" v:langID="1033"><v:paragraph v:horizAlign="1"/><v:tabList/>Film Category</text>		</g>
		<g id="shape138-151" v:mID="138" v:groupContext="shape" v:layerMember="1" transform="translate(311.696,-571.5)">
			<title>Dynamic connector.138</title>
			<desc>Film Data + Screening Times</desc>
			<v:textBlock v:margins="rect(4,4,4,4)"/>
			<v:textRect cx="34.5779" cy="761.189" width="62.68" height="27.2035"/>
			<path d="M0 792 L98.52 695.95" class="st1"/>
			<rect v:rectContext="textBkgnd" x="8.14877" y="751.589" width="52.8585" height="19.1997" class="st5"/>
			<text x="16.28" y="758.79" class="st4" v:langID="1033"><v:paragraph v:horizAlign="1"/><v:tabList/>Film Data +<v:newlineChar/><tspan
						x="8.15" dy="1.2em" class="st6">Screening Times</tspan></text>		</g>
		<g id="shape140-159" v:mID="140" v:groupContext="shape" v:layerMember="1" transform="translate(128.321,-326.625)">
			<title>Dynamic connector.140</title>
			<desc>Screening Times</desc>
			<v:textBlock v:margins="rect(4,4,4,4)"/>
			<v:textRect cx="8.75572" cy="722.203" width="62.68" height="17.6036"/>
			<path d="M9 792 L9 678.43" class="st1"/>
			<rect v:rectContext="textBkgnd" x="-17.6734" y="717.404" width="52.8585" height="9.59985" class="st5"/>
			<text x="-17.67" y="724.6" class="st4" v:langID="1033"><v:paragraph v:horizAlign="1"/><v:tabList/>Screening Times</text>		</g>
		<g id="shape141-166" v:mID="141" v:groupContext="shape" v:layerMember="1" transform="translate(208.196,-450)">
			<title>Dynamic connector.141</title>
			<desc>Film Reviews</desc>
			<v:textBlock v:margins="rect(4,4,4,4)"/>
			<v:textRect cx="9" cy="855" width="51.96" height="17.6036"/>
			<path d="M9 792 L9 905.94" class="st1"/>
			<rect v:rectContext="textBkgnd" x="-12.0737" y="850.2" width="42.1477" height="9.59985" class="st5"/>
			<text x="-12.07" y="857.4" class="st4" v:langID="1033"><v:paragraph v:horizAlign="1"/><v:tabList/>Film Reviews</text>		</g>
		<g id="shape142-173" v:mID="142" v:groupContext="shape" v:layerMember="0" transform="translate(190.196,-450)">
			<title>Data process.142</title>
			<desc>1.7 Get Reviews for All Films</desc>
			<v:custProps>
				<v:cp v:nameU="Cost" v:lbl="Cost" v:type="7" v:format="@" v:langID="1033"/>
				<v:cp v:nameU="Duration" v:lbl="Duration" v:type="2" v:langID="1033"/>
				<v:cp v:nameU="Resources" v:lbl="Resources" v:langID="1033"/>
			</v:custProps>
			<v:userDefs>
				<v:ud v:nameU="visVersion" v:val="VT0(15):26"/>
			</v:userDefs>
			<v:textBlock v:margins="rect(1,1,1,1)"/>
			<v:textRect cx="27" cy="765" width="54" height="54"/>
			<path d="M0 765 A27 27 0 0 1 54 765 A27 27 0 1 1 0 765 Z" class="st7"/>
			<text x="21.94" y="757.8" class="st4" v:langID="1033"><v:paragraph v:horizAlign="1"/><v:tabList/>1.7<v:newlineChar/><tspan
						x="6.94" dy="1.2em" class="st6">Get Reviews<v:newlineChar/></tspan><tspan x="7.88" dy="1.2em" class="st6">for All Films</tspan></text>		</g>
		<g id="shape143-178" v:mID="143" v:groupContext="shape" v:layerMember="0" transform="translate(415.196,-450)">
			<title>Data process.143</title>
			<desc>1.4 Format Film for Streaming</desc>
			<v:custProps>
				<v:cp v:nameU="Cost" v:lbl="Cost" v:type="7" v:format="@" v:langID="1033"/>
				<v:cp v:nameU="Duration" v:lbl="Duration" v:type="2" v:langID="1033"/>
				<v:cp v:nameU="Resources" v:lbl="Resources" v:langID="1033"/>
			</v:custProps>
			<v:userDefs>
				<v:ud v:nameU="visVersion" v:val="VT0(15):26"/>
			</v:userDefs>
			<v:textBlock v:margins="rect(1,1,1,1)"/>
			<v:textRect cx="27" cy="765" width="54" height="54"/>
			<path d="M0 765 A27 27 0 0 1 54 765 A27 27 0 1 1 0 765 Z" class="st7"/>
			<text x="21.94" y="757.8" class="st4" v:langID="1033"><v:paragraph v:horizAlign="1"/><v:tabList/>1.4<v:newlineChar/><tspan
						x="7.43" dy="1.2em" class="st6">Format Film<v:newlineChar/></tspan><tspan x="4.79" dy="1.2em" class="st6">for Streaming</tspan></text>		</g>
		<g id="shape144-183" v:mID="144" v:groupContext="shape" v:layerMember="1" transform="translate(442.196,-450)">
			<title>Dynamic connector.144</title>
			<desc>Streaming Link</desc>
			<v:textBlock v:margins="rect(4,4,4,4)"/>
			<v:textRect cx="-9" cy="801" width="57.82" height="17.6036"/>
			<path d="M0 792 L-20.47 820.55" class="st1"/>
			<rect v:rectContext="textBkgnd" x="-32.9995" y="796.2" width="47.9993" height="9.59985" class="st5"/>
			<text x="-33" y="803.4" class="st4" v:langID="1033"><v:paragraph v:horizAlign="1"/><v:tabList/>Streaming Link</text>		</g>
		<g id="shape145-190" v:mID="145" v:groupContext="shape" v:layerMember="1" transform="translate(284.696,-544.5)">
			<title>Dynamic connector.145</title>
			<desc>Film Reviews</desc>
			<v:textBlock v:margins="rect(4,4,4,4)"/>
			<v:textRect cx="-31.5" cy="819" width="51.96" height="17.6036"/>
			<path d="M0 792 L-41.47 833.47" class="st1"/>
			<rect v:rectContext="textBkgnd" x="-52.5737" y="814.2" width="42.1477" height="9.59985" class="st5"/>
			<text x="-52.57" y="821.4" class="st4" v:langID="1033"><v:paragraph v:horizAlign="1"/><v:tabList/>Film Reviews</text>		</g>
		<g id="shape149-197" v:mID="149" v:groupContext="shape" v:layerMember="0" transform="translate(110.321,-450)">
			<title>Data process.149</title>
			<desc>1.8 Store Screening Times</desc>
			<v:custProps>
				<v:cp v:nameU="Cost" v:lbl="Cost" v:type="7" v:format="@" v:langID="1033"/>
				<v:cp v:nameU="Duration" v:lbl="Duration" v:type="2" v:langID="1033"/>
				<v:cp v:nameU="Resources" v:lbl="Resources" v:langID="1033"/>
			</v:custProps>
			<v:userDefs>
				<v:ud v:nameU="visVersion" v:val="VT0(15):26"/>
			</v:userDefs>
			<v:textBlock v:margins="rect(1,1,1,1)"/>
			<v:textRect cx="27" cy="765" width="54" height="54"/>
			<path d="M0 765 A27 27 0 0 1 54 765 A27 27 0 1 1 0 765 Z" class="st7"/>
			<text x="21.94" y="753" class="st4" v:langID="1033"><v:paragraph v:horizAlign="1"/><v:tabList/>1.8<v:newlineChar/><tspan
						x="18.33" dy="1.2em" class="st6">Store<v:newlineChar/></tspan><tspan x="11.09" dy="1.2em" class="st6">Screening </tspan><tspan
						x="17.38" dy="1.2em" class="st6">Times</tspan></text>		</g>
		<g id="shape150-203" v:mID="150" v:groupContext="shape" v:layerMember="1" transform="translate(161.43,-489.156)">
			<title>Dynamic connector.150</title>
			<desc>Screening Times</desc>
			<v:textBlock v:margins="rect(4,4,4,4)"/>
			<v:textRect cx="20.5872" cy="772.605" width="62.68" height="17.6036"/>
			<path d="M0 792 L101.01 741.07" class="st1"/>
			<rect v:rectContext="textBkgnd" x="-5.842" y="767.805" width="52.8585" height="9.59985" class="st5"/>
			<text x="-5.84" y="775" class="st4" v:langID="1033"><v:paragraph v:horizAlign="1"/><v:tabList/>Screening Times</text>		</g>
	</g>
</svg>
