<?xml version="1.0" encoding="UTF-8" standalone="no"?>
<!DOCTYPE svg PUBLIC "-//W3C//DTD SVG 1.1//EN" "http://www.w3.org/Graphics/SVG/1.1/DTD/svg11.dtd">
<!-- Generated by Microsoft Visio, SVG Export Use Case Diagram.svg Page-1 -->
<svg xmlns="http://www.w3.org/2000/svg" xmlns:xlink="http://www.w3.org/1999/xlink" xmlns:ev="http://www.w3.org/2001/xml-events"
		xmlns:v="http://schemas.microsoft.com/visio/2003/SVGExtensions/" width="8.5in" height="11in" viewBox="0 0 612 792"
		xml:space="preserve" color-interpolation-filters="sRGB" class="st4">
	<v:documentProperties v:langID="1033" v:viewMarkup="false">
		<v:userDefs>
			<v:ud v:nameU="msvNoAutoConnect" v:val="VT0(1):26"/>
		</v:userDefs>
	</v:documentProperties>

	<style type="text/css">
	<![CDATA[
		.st1 {fill:#ffffff;stroke:#000000;stroke-linecap:round;stroke-linejoin:round;stroke-width:0.75}
		.st2 {fill:#000000;font-family:Calibri;font-size:1.00001em}
		.st3 {stroke:#000000;stroke-linecap:round;stroke-linejoin:round;stroke-width:0.75}
		.st4 {fill:none;fill-rule:evenodd;font-size:12px;overflow:visible;stroke-linecap:square;stroke-miterlimit:3}
	]]>
	</style>

	<g v:mID="0" v:index="1" v:groupContext="foregroundPage">
		<title>Page-1</title>
		<v:pageProperties v:drawingScale="1" v:pageScale="1" v:drawingUnits="19" v:shadowOffsetX="9" v:shadowOffsetY="-9"/>
		<v:layer v:name="Container" v:index="0"/>
		<v:layer v:name="Connector" v:index="1"/>
		<g id="shape10-1" v:mID="10" v:groupContext="shape" transform="translate(269.864,-657)">
			<title>Use Case</title>
			<desc>Submits Film</desc>
			<v:userDefs>
				<v:ud v:nameU="visVersion" v:prompt="" v:val="VT0(15):26"/>
			</v:userDefs>
			<v:textBlock v:margins="rect(4,4,4,4)"/>
			<v:textRect cx="54" cy="774" width="108" height="36"/>
			<ellipse cx="54" cy="774" rx="54" ry="18" class="st1"/>
			<text x="22.75" y="777.6" class="st2" v:langID="1033"><v:paragraph v:horizAlign="1"/><v:tabList/>Submits Film</text>		</g>
		<g id="shape11-4" v:mID="11" v:groupContext="shape" transform="translate(35.8637,-684)">
			<title>Actor</title>
			<desc>Filmmaker</desc>
			<v:userDefs>
				<v:ud v:nameU="visVersion" v:prompt="" v:val="VT0(15):26"/>
			</v:userDefs>
			<v:textBlock v:margins="rect(4,4,4,4)"/>
			<v:textRect cx="18" cy="803.202" width="62.27" height="22.4037"/>
			<path d="M7.2 792 L7.2 756 L7.2 770.4 L0 770.4 L0 741.6 L3.6 738 L32.4 738 L36 741.6 L36 770.4 L28.8 770.4 L28.8 756
						 L28.8 792 L18 792 L18 763.2 L18 792 L7.2 792 ZM25.2 727.2 A7.2 7.2 -180 1 0 10.8 727.2 A7.2 7.2 -180 1 0
						 25.2 727.2 Z" class="st1"/>
			<text x="-7.78" y="806.8" class="st2" v:langID="1033"><v:paragraph v:horizAlign="1"/><v:tabList/>Filmmaker</text>		</g>
		<g id="shape12-7" v:mID="12" v:groupContext="shape" v:layerMember="1" transform="translate(71.8637,-717)">
			<title>Association</title>
			<v:userDefs>
				<v:ud v:nameU="visVersion" v:prompt="" v:val="VT0(15):26"/>
			</v:userDefs>
			<path d="M0 792 L203.7 825.95" class="st3"/>
		</g>
		<g id="shape13-10" v:mID="13" v:groupContext="shape" transform="translate(269.864,-576)">
			<title>Use Case.13</title>
			<desc>Reviews one Film</desc>
			<v:userDefs>
				<v:ud v:nameU="visVersion" v:prompt="" v:val="VT0(15):26"/>
			</v:userDefs>
			<v:textBlock v:margins="rect(4,4,4,4)"/>
			<v:textRect cx="54" cy="774" width="108" height="36"/>
			<ellipse cx="54" cy="774" rx="54" ry="18" class="st1"/>
			<text x="11.73" y="777.6" class="st2" v:langID="1033"><v:paragraph v:horizAlign="1"/><v:tabList/>Reviews one Film</text>		</g>
		<g id="shape14-13" v:mID="14" v:groupContext="shape" transform="translate(269.864,-324)">
			<title>Use Case.14</title>
			<desc>Book a Showing</desc>
			<v:userDefs>
				<v:ud v:nameU="visVersion" v:prompt="" v:val="VT0(15):26"/>
			</v:userDefs>
			<v:textBlock v:margins="rect(4,4,4,4)"/>
			<v:textRect cx="54" cy="774" width="108" height="36"/>
			<ellipse cx="54" cy="774" rx="54" ry="18" class="st1"/>
			<text x="15.38" y="777.6" class="st2" v:langID="1033"><v:paragraph v:horizAlign="1"/><v:tabList/>Book a Showing</text>		</g>
		<g id="shape15-16" v:mID="15" v:groupContext="shape" transform="translate(35.8637,-558)">
			<title>Actor.15</title>
			<desc>Staff Reviewer</desc>
			<v:userDefs>
				<v:ud v:nameU="visVersion" v:prompt="" v:val="VT0(15):26"/>
			</v:userDefs>
			<v:textBlock v:margins="rect(4,4,4,4)"/>
			<v:textRect cx="18" cy="803.202" width="81.4" height="22.4037"/>
			<path d="M7.2 792 L7.2 756 L7.2 770.4 L0 770.4 L0 741.6 L3.6 738 L32.4 738 L36 741.6 L36 770.4 L28.8 770.4 L28.8 756
						 L28.8 792 L18 792 L18 763.2 L18 792 L7.2 792 ZM25.2 727.2 A7.2 7.2 -180 1 0 10.8 727.2 A7.2 7.2 -180 1 0
						 25.2 727.2 Z" class="st1"/>
			<text x="-17.34" y="806.8" class="st2" v:langID="1033"><v:paragraph v:horizAlign="1"/><v:tabList/>Staff Reviewer</text>		</g>
		<g id="shape16-19" v:mID="16" v:groupContext="shape" transform="translate(35.8637,-306)">
			<title>Actor.16</title>
			<desc>Attendee</desc>
			<v:userDefs>
				<v:ud v:nameU="visVersion" v:prompt="" v:val="VT0(15):26"/>
			</v:userDefs>
			<v:textBlock v:margins="rect(4,4,4,4)"/>
			<v:textRect cx="18" cy="803.202" width="56.23" height="22.4037"/>
			<path d="M7.2 792 L7.2 756 L7.2 770.4 L0 770.4 L0 741.6 L3.6 738 L32.4 738 L36 741.6 L36 770.4 L28.8 770.4 L28.8 756
						 L28.8 792 L18 792 L18 763.2 L18 792 L7.2 792 ZM25.2 727.2 A7.2 7.2 -180 1 0 10.8 727.2 A7.2 7.2 -180 1 0
						 25.2 727.2 Z" class="st1"/>
			<text x="-4.75" y="806.8" class="st2" v:langID="1033"><v:paragraph v:horizAlign="1"/><v:tabList/>Attendee</text>		</g>
		<g id="shape17-22" v:mID="17" v:groupContext="shape" v:layerMember="1" transform="translate(71.8637,-585)">
			<title>Dynamic connector</title>
			<path d="M0 783 L198 783" class="st3"/>
		</g>
		<g id="shape18-25" v:mID="18" v:groupContext="shape" v:layerMember="1" transform="translate(71.8637,-333)">
			<title>Dynamic connector.18</title>
			<path d="M0 783 L198 783" class="st3"/>
		</g>
		<g id="shape19-28" v:mID="19" v:groupContext="shape" transform="translate(260.591,-450)">
			<title>Use Case.19</title>
			<desc>Approve or Reject Films</desc>
			<v:userDefs>
				<v:ud v:nameU="visVersion" v:prompt="" v:val="VT0(15):26"/>
			</v:userDefs>
			<v:textBlock v:margins="rect(4,4,4,4)"/>
			<v:textRect cx="63.2726" cy="774" width="126.55" height="36"/>
			<ellipse cx="63.2726" cy="774" rx="63.2726" ry="18" class="st1"/>
			<text x="5.36" y="777.6" class="st2" v:langID="1033"><v:paragraph v:horizAlign="1"/><v:tabList/>Approve or Reject Films</text>		</g>
		<g id="shape20-31" v:mID="20" v:groupContext="shape" v:layerMember="1" transform="translate(71.8637,-476.894)">
			<title>Dynamic connector.20</title>
			<path d="M0 800.91 L188.73 801.09" class="st3"/>
		</g>
		<g id="shape21-34" v:mID="21" v:groupContext="shape" transform="translate(35.8637,-432)">
			<title>Actor.21</title>
			<desc>The Admin</desc>
			<v:userDefs>
				<v:ud v:nameU="visVersion" v:prompt="" v:val="VT0(15):26"/>
			</v:userDefs>
			<v:textBlock v:margins="rect(4,4,4,4)"/>
			<v:textRect cx="18" cy="803.202" width="63.45" height="22.4037"/>
			<path d="M7.2 792 L7.2 756 L7.2 770.4 L0 770.4 L0 741.6 L3.6 738 L32.4 738 L36 741.6 L36 770.4 L28.8 770.4 L28.8 756
						 L28.8 792 L18 792 L18 763.2 L18 792 L7.2 792 ZM25.2 727.2 A7.2 7.2 -180 1 0 10.8 727.2 A7.2 7.2 -180 1 0
						 25.2 727.2 Z" class="st1"/>
			<text x="-8.36" y="806.8" class="st2" v:langID="1033"><v:paragraph v:horizAlign="1"/><v:tabList/>The Admin</text>		</g>
		<g id="shape22-37" v:mID="22" v:groupContext="shape" transform="translate(269.864,-738)">
			<title>Use Case.22</title>
			<desc>Create Login</desc>
			<v:userDefs>
				<v:ud v:nameU="visVersion" v:prompt="" v:val="VT0(15):26"/>
			</v:userDefs>
			<v:textBlock v:margins="rect(4,4,4,4)"/>
			<v:textRect cx="54" cy="774" width="108" height="36"/>
			<ellipse cx="54" cy="774" rx="54" ry="18" class="st1"/>
			<text x="23.46" y="777.6" class="st2" v:langID="1033"><v:paragraph v:horizAlign="1"/><v:tabList/>Create Login</text>		</g>
		<g id="shape23-40" v:mID="23" v:groupContext="shape" v:layerMember="1" transform="translate(71.8637,-722.4)">
			<title>Dynamic connector.23</title>
			<path d="M0 792 L201.86 765.09" class="st3"/>
		</g>
	</g>
</svg>
